<svg width="2048" height="2048" viewBox="0 0 2048 2048" fill="none" xmlns="http://www.w3.org/2000/svg">
<g clip-path="url(#clip0_402_4823)">
<rect width="2048" height="2048" rx="313.806" fill="#141415"/>
<path d="M950.084 878.345V929.813C950.084 970.253 931.702 1001.87 894.204 1019.52C933.173 1031.28 956.701 1059.22 956.701 1100.39V1176.86C956.701 1273.18 897.88 1321.71 779.502 1321.71H186.144V1217.3H761.121C814.06 1217.3 847.147 1207.01 847.147 1162.89V1104.81C847.147 1082.01 828.03 1070.98 801.56 1070.98H193.496V976.87H802.296C828.03 976.87 845.676 961.43 845.676 937.901V890.109C845.676 848.934 814.06 837.905 761.121 837.905H189.085V733.498H779.502C893.468 733.498 950.084 782.025 950.084 878.345Z" fill="#99FFFF"/>
<path d="M1887.83 1217.3V1321.71H1246.68C1128.31 1321.71 1068.75 1273.92 1068.75 1178.33V733.498H1178.3V1162.16C1178.3 1198.92 1201.1 1217.3 1246.68 1217.3H1887.83Z" fill="white"/>
</g>
<defs>
<clipPath id="clip0_402_4823">
<rect width="2048" height="2048" fill="white"/>
</clipPath>
</defs>
</svg>
