<?xml version="1.0" standalone="no"?>
<!DOCTYPE svg PUBLIC "-//W3C//DTD SVG 20010904//EN"
 "http://www.w3.org/TR/2001/REC-SVG-20010904/DTD/svg10.dtd">
<svg version="1.0" xmlns="http://www.w3.org/2000/svg"
 width="700.000000pt" height="700.000000pt" viewBox="0 0 700.000000 700.000000"
 preserveAspectRatio="xMidYMid meet">
<metadata>
Created by potrace 1.14, written by Peter Selinger 2001-2017
</metadata>
<g transform="translate(0.000000,700.000000) scale(0.100000,-0.100000)"
fill="#000000" stroke="none">
<path d="M658 4490 c-10 -4 -13 -45 -12 -170 1 -91 2 -169 3 -175 1 -7 342
-10 1006 -9 552 1 1030 -3 1062 -8 74 -12 118 -33 146 -72 19 -27 22 -46 25
-158 3 -116 2 -131 -18 -167 -13 -21 -34 -45 -49 -52 -21 -11 -227 -14 -1081
-15 -580 -2 -1061 -3 -1067 -3 -10 -1 -13 -40 -13 -161 l0 -160 1063 -1 c795
0 1071 -3 1097 -12 19 -7 44 -26 55 -43 19 -29 21 -44 20 -171 -2 -153 -11
-184 -66 -225 -61 -46 -81 -47 -1160 -47 -561 0 -1023 -2 -1027 -5 -5 -3 -8
-318 -3 -347 2 -11 2164 -2 2221 10 204 42 325 134 381 289 23 64 24 79 24
302 l0 235 -29 53 c-32 57 -79 98 -140 123 l-40 16 29 16 c50 25 106 88 133
146 23 52 25 69 28 217 1 137 -6 235 -20 279 -2 6 -4 13 -5 18 0 4 -12 30 -27
58 -56 111 -166 187 -324 224 -69 17 -160 18 -1137 19 -585 1 -1068 -1 -1075
-4z"/>
<path d="M3660 4490 c-13 -9 -9 -1561 4 -1634 26 -138 103 -239 228 -301 144
-70 100 -68 1396 -70 1046 -1 1162 0 1163 14 3 77 1 333 -3 337 -3 2 -511 5
-1129 5 -1224 1 -1180 -1 -1241 57 -15 14 -33 41 -39 60 -8 25 -11 249 -11
783 0 412 -3 749 -7 750 -23 4 -354 3 -361 -1z"/>
</g>
</svg>
